<svg width="27" height="27" viewBox="0 0 27 27" fill="none" xmlns="http://www.w3.org/2000/svg">
<path d="M20.2489 0.0056178L16.7476 0C12.8141 0 10.272 2.60806 10.272 6.64474V9.7084H6.75168C6.44748 9.7084 6.20114 9.95503 6.20114 10.2592V14.6981C6.20114 15.0023 6.44776 15.2487 6.75168 15.2487H10.272V26.4495C10.272 26.7537 10.5184 27 10.8226 27H15.4156C15.7198 27 15.9662 26.7534 15.9662 26.4495V15.2487H20.0823C20.3865 15.2487 20.6328 15.0023 20.6328 14.6981L20.6345 10.2592C20.6345 10.1132 20.5764 9.97328 20.4733 9.86992C20.3702 9.76655 20.2298 9.7084 20.0837 9.7084H15.9662V7.11129C15.9662 5.86302 16.2636 5.22933 17.8897 5.22933L20.2483 5.22849C20.5522 5.22849 20.7986 4.98187 20.7986 4.67794V0.556162C20.7986 0.25252 20.5525 0.00617958 20.2489 0.0056178Z" fill="#6090F4"/>
</svg>
