<svg width="24" height="24" viewBox="0 0 24 24" fill="none" xmlns="http://www.w3.org/2000/svg">
<path d="M15.0941 5.14728L15.4196 5.25105C15.4196 3.77289 13.8847 2 12.4065 2C10.9284 2 9.39339 3.77289 9.39339 5.25105L9.71895 5.14728C5.84885 6.30293 3.00002 9.90427 3.00002 14.1506C3.00002 14.3388 3.16128 14.5 3.34941 14.5H21.4636C21.6518 14.5 21.813 14.3388 21.813 14.1506C21.813 9.90427 18.9642 6.30293 15.0941 5.14728ZM12.4065 3.10472C13.4547 3.10472 14.3147 3.91099 14.3684 4.93227C13.7503 4.82477 13.0784 4.74414 12.4065 4.74414C11.7346 4.74414 11.0627 4.82477 10.4446 4.95915C10.4983 3.91099 11.3584 3.10472 12.4065 3.10472ZM12.4065 6C16.5454 6 19.64 8.06273 20.5 11.9328H4.46363C5.32365 8.06273 8.26766 6 12.4065 6ZM3.8063 13.5C3.8063 13.2312 3.75254 13.2637 3.8063 12.995H21.0336C21.0605 13.2637 20.953 13.1988 21.0336 13.5H12.4636H3.8063Z" fill="white"/>
<path d="M22.4546 16.8779H2.5196C1.66965 16.8779 1 17.6036 1 18.4636C1 19.3505 1.69541 20.0492 2.5196 20.0492H22.4804C23.3303 20.0492 24 19.3236 24 18.4636C24 17.6036 23.3046 16.8779 22.4546 16.8779ZM22.4546 19H2.41394C1.95034 19 1.66965 18.9473 1.66965 18.4636C1.66965 17.9798 2.05599 18 2.5196 18L22.4546 17.8507C22.9183 17.8507 23.3303 17.9798 23.3303 18.4636C23.3046 18.9473 22.9183 19 22.4546 19Z" fill="white"/>
</svg>
