<svg width="24" height="24" viewBox="0 0 24 24" fill="none" xmlns="http://www.w3.org/2000/svg">
<g clip-path="url(#clip0)">
<path d="M23.3757 20.4059L13.9648 10.995L2.96984 0H2.11057L1.93512 0.445828C1.47204 1.62258 1.27418 2.82614 1.36301 3.92625C1.46426 5.18025 1.94065 6.26592 2.74076 7.06603L11.324 15.6493L12.4562 14.5172L20.3914 23.3903C21.1808 24.1797 22.5394 24.2265 23.3757 23.3903C24.1985 22.5675 24.1985 21.2287 23.3757 20.4059Z" fill="white"/>
<path d="M7.34666 13.6613L0.624265 20.3837C-0.198485 21.2065 -0.198485 22.5453 0.624265 23.368C1.40586 24.1496 2.75797 24.2186 3.60856 23.368L10.331 16.6456L7.34666 13.6613Z" fill="white"/>
<path d="M22.9806 3.99853L19.1673 7.81182L18.1725 6.81704L21.9858 3.00371L20.991 2.00892L17.1777 5.82221L16.1829 4.82743L19.9963 1.01414L19.0015 0.0194092L14.0276 4.99332C13.4191 5.6018 13.0558 6.40974 13.0044 7.26839C12.9915 7.48594 12.9421 7.69993 12.8604 7.90346L16.0914 11.1345C16.2949 11.0526 16.509 11.0033 16.7265 10.9904C17.5851 10.9391 18.3931 10.5757 19.0015 9.96722L23.9754 4.99336L22.9806 3.99853Z" fill="white"/>
</g>
<defs>
<clipPath id="clip0">
<rect width="24" height="24" fill="white"/>
</clipPath>
</defs>
</svg>
